<svg width="20" height="20" viewBox="0 0 20 20" fill="none" xmlns="http://www.w3.org/2000/svg">
<path d="M10.3976 10.0008L10.7511 9.64722L19.4174 0.980912C19.5273 0.871045 19.5272 0.692959 19.4174 0.583161C19.3075 0.473274 19.1294 0.473333 19.0196 0.583116L19.0196 0.583139L10.3533 9.24945L9.99975 9.603L9.64619 9.24945L0.979921 0.583139C0.979921 0.583138 0.97992 0.583138 0.97992 0.583138C0.870053 0.473272 0.691967 0.473304 0.582169 0.583116C0.472282 0.693017 0.472341 0.871121 0.582124 0.98089L0.582147 0.980912L9.24842 9.64718L9.60197 10.0007L9.24842 10.3543L0.582147 19.0206C0.47228 19.1305 0.472312 19.3086 0.582124 19.4184L0.582147 19.4184C0.637106 19.4733 0.708212 19.5007 0.781053 19.5007C0.853857 19.5007 0.924962 19.4734 0.980005 19.4183L9.64619 10.7521L9.99975 10.3985L10.3533 10.7521L19.0196 19.4184C19.0745 19.4733 19.1456 19.5007 19.2185 19.5007C19.2913 19.5007 19.3623 19.4734 19.4174 19.4184C19.4174 19.4184 19.4174 19.4183 19.4174 19.4183M10.3976 10.0008L19.7709 18.667C20.0761 18.9721 20.0761 19.4668 19.7709 19.7719L19.4174 19.4183M10.3976 10.0008L10.7511 10.3543L19.4174 19.0206L19.4174 19.0206C19.5272 19.1304 19.5273 19.3085 19.4174 19.4183M10.3976 10.0008L19.4174 19.4183" fill="white" stroke="black"/>
</svg>
